<?xml version="1.0" encoding="utf-8"?>
<!-- Generator: Adobe Illustrator 16.0.3, SVG Export Plug-In . SVG Version: 6.00 Build 0)  -->
<!DOCTYPE svg PUBLIC "-//W3C//DTD SVG 1.1//EN" "http://www.w3.org/Graphics/SVG/1.1/DTD/svg11.dtd">
<svg version="1.1" id="Layer_1" xmlns="http://www.w3.org/2000/svg" xmlns:xlink="http://www.w3.org/1999/xlink" x="0px" y="0px"
	 width="557.018px" height="460.18px" viewBox="0 0 557.018 460.18" enable-background="new 0 0 557.018 460.18"
	 xml:space="preserve">
<path d="M392.089,51.312c3.576,0,7.151,0,10.727,0c12.853,3.005,24.749,8.328,34.373,17.306c9.845,9.183,19.901,18.534,27.8,29.324
	c14.331,19.583,19.452,42.845,22.996,66.496c0.473,3.158-1.166,8.1,4.642,9.549c12.437,3.103,20.583,14.018,22.772,26.558
	c1.934,11.072,1.812,21.71-0.022,32.743c-3.137,18.86-10.059,35.818-22.932,49.993c-6.953,7.656-15.661,11.052-26.174,7.778
	c-6.924-2.157-13.977-3.919-20.855-6.203c-2.851-0.947-5.954-2.256-7.98-4.337c-5.672-5.826-9.433-12.834-10.011-21.255
	c-16.938,6.622-33.441,12.906-49.815,19.514c-28.07,11.33-56.044,22.901-84.108,34.246c-2.936,1.188-3.667,2.844-4.283,5.907
	c-2.427,12.062-4.059,24.582-8.646,35.849c-10.152,24.938-27.294,43.908-52.958,54.09c-6.754,0-13.508,0-20.262,0
	c-8.821-4.258-17.448-8.994-26.509-12.658c-13.61-5.506-22.027-15.534-26.723-28.904c-2.027-5.774-2.866-11.967-4.259-18.035
	c-8.998-0.025-17.168-0.526-25.51,3.958c-11.351,6.101-23.78,6.462-35.86,0.554c-5.111-2.5-10.265-4.958-15.558-7.029
	c-18.81-7.354-28.025-22.295-31.465-41.045c-3.233-17.623-0.12-34.728,8.518-50.424c4.289-7.794,7.942-15.615,8.849-24.477
	c1.142-11.164,7.389-19.046,16.358-24.744c9.749-6.192,19.587-12.485,30.065-17.237c18.952-8.595,38.416-16.06,57.65-24.032
	c12.315-5.105,24.617-10.246,36.902-15.424c20.591-8.679,41.172-17.384,61.729-26.147c1.171-0.499,2.332-1.444,3.063-2.487
	c6.531-9.293,12.406-19.114,19.609-27.843c5.267-6.382,12.451-10.539,21.287-11.737c14.049-1.904,26.773,0.464,38.222,9.038
	c2.735,2.049,5.023,1.816,7.646-0.972c5.622-5.976,11.64-11.214,14.953-19.343C370.824,58.823,380.763,53.728,392.089,51.312z"/>
</svg>
