<?xml version="1.0" encoding="utf-8"?>
<!-- Generator: Adobe Illustrator 16.0.3, SVG Export Plug-In . SVG Version: 6.00 Build 0)  -->
<!DOCTYPE svg PUBLIC "-//W3C//DTD SVG 1.1//EN" "http://www.w3.org/Graphics/SVG/1.1/DTD/svg11.dtd">
<svg version="1.1" id="Layer_1" xmlns="http://www.w3.org/2000/svg" xmlns:xlink="http://www.w3.org/1999/xlink" x="0px" y="0px"
	 width="557.018px" height="460.18px" viewBox="0 0 557.018 460.18" enable-background="new 0 0 557.018 460.18"
	 xml:space="preserve">
<path d="M140.583,0c0.191,0,0.383,0,0.574,0c2.848,1.479,5.891,2.683,8.486,4.517c2.549,1.801,4.668,4.219,6.932,6.412
	c3.174,3.077,6.309,6.196,9.965,9.794c0.428-3.339,0.709-5.781,1.057-8.215c1.025-7.213,4.348-9.358,11.363-7.506
	c5.998,1.583,10.926,5.026,15.469,9.007c7.568,6.633,12.947,15.044,18.191,23.486c5.287,8.512,10.285,17.203,15.352,25.85
	c1.584,2.705,3.004,5.506,4.441,8.293c1.078,2.092,2.018,4.255,3.109,6.338c0.707,1.346,1.525,2.642,2.383,3.898
	c1.869,2.738,3.779,5.449,5.709,8.146c0.887,1.241,2.111,2.303,2.75,3.65c2.559,5.393,5.832,10.264,9.764,14.753
	c2.01,2.296,3.607,4.948,5.555,7.304c1.857,2.245,3.822,4.424,5.934,6.426c1.586,1.504,3.604,2.549,5.205,4.039
	c2.199,2.047,4.742,2.403,7.459,1.881c6.357-1.221,12.746-2.352,19.024-3.917c9.041-2.256,17.936-5.114,27.01-7.212
	c4.219-0.977,8.781-0.396,13.07-1.173c8.898-1.611,17.725-3.629,26.564-5.541c3.258-0.704,6.592-1.278,9.686-2.454
	c4.617-1.754,9.062-3.965,13.562-6.021c5.332-2.437,10.084-5.492,12.031-11.496c0.586-1.805,1.453-3.531,1.908-5.365
	c2.344-9.432,4.48-18.916,6.926-28.32c1.428-5.486,3.564-10.738,8.23-14.402c3.43-2.693,8.596-2.607,11.434-0.072
	c1.416,1.263,2.83,2.569,4.42,3.588c3.422,2.193,5.949,5.096,7.486,8.831c1.797,4.369,4.566,8.665,5.035,13.188
	c1.062,10.238,1.268,20.596,1.229,30.902c-0.02,5.338,1.723,9.073,5.967,12.166c8.496,6.192,15.627,13.584,21.334,22.61
	c4.553,7.202,7.438,14.903,8.922,22.985c1.783,9.699,0.611,19.584-0.689,29.348c-0.906,6.794-1.953,13.576-2.584,20.396
	c-0.303,3.292-0.139,6.72,0.42,9.982c1.158,6.751,2.678,13.444,4.135,20.143c1.457,6.699,3.111,13.357,4.482,20.072
	c0.502,2.459,0.432,5.033,0.637,7.553c0.115,1.416,0.158,2.846,0.4,4.24c0.857,4.965,1.924,9.898,2.648,14.883
	c0.727,4.996,1.197,10.035,1.672,15.064c0.424,4.488,1.006,8.99,0.965,13.482c-0.064,7.316-2.982,13.727-7.26,19.561
	c-3.379,4.607-8.219,6.346-13.631,6.674c-3.719,0.227-7.529,0.494-11.176-0.059c-6.182-0.936-12.393-2.102-18.354-3.945
	c-4.41-1.365-7.637-4.812-7.391-9.852c0.365-7.506,0.883-15.043,1.992-22.469c1.254-8.379,3.088-16.746-2.213-24.324
	c-3.088-4.412-6.82-8.381-10.377-12.451c-0.566-0.646-1.73-0.77-2.926-1.262c-0.078,1.648-0.201,2.785-0.174,3.918
	c0.168,7.365,0.49,14.73,0.527,22.098c0.035,7.408-4.887,14.758-10.789,17.285c-6.984,2.99-13.811,6.35-20.75,9.453
	c-1.246,0.557-2.867,1.205-4.031,0.857c-5.281-1.58-10.799-3.057-14.742-7.158c-5.158-5.367-8.303-11.658-6.557-19.479
	c0.309-1.375,0.496-2.779,0.781-4.404c-0.648,0.191-1.096,0.268-1.496,0.451c-10.879,4.953-21.15,11.033-32.852,14.455
	c-7.484,2.188-15.051,3.1-22.551,4.711c-1.074,0.23-2.297,0.008-3.406-0.221c-5.697-1.174-10.387,2.842-10.25,8.664
	c0.072,3.043,0.025,6.121-0.357,9.135c-1.003,7.889-7.431,13.146-10.101,20.273c-0.99,2.648-2.898,4.955-3.887,7.604
	c-4.502,12.053-8.736,24.203-13.256,36.248c-1.654,4.412-3.264,8.691-2.887,13.566c0.188,2.43-0.543,4.93-0.836,7.4
	c-0.674,5.684-1.809,11.359-1.898,17.053c-0.172,10.852-4.666,19.74-11.324,27.824c-2.23,2.707-5.133,3.918-8.707,4.299
	c-5.838,0.623-11.617,1.799-17.422,2.74c-0.383,0-0.766,0-1.148,0c-1.117-0.156-2.242-0.479-3.354-0.441
	c-9.158,0.295-17.723-2.332-26.242-5.209c-4.219-1.426-7.141-4.311-7.01-8.771c0.164-5.58,0.639-11.279,2.021-16.66
	c1.652-6.43,4.521-12.537,6.656-18.854c3.105-9.189,4.748-18.719,5.418-28.35c0.963-13.838,2.734-27.508,6.51-40.881
	c0.406-1.439,0.525-2.961,0.777-4.445c-0.275-0.07-0.551-0.143-0.824-0.217c-0.57,0.947-1.271,1.838-1.693,2.844
	c-3.666,8.785-7.584,17.48-10.811,26.424c-2.09,5.789-3.217,11.932-4.654,17.947c-1.465,6.113-2.611,12.309-4.229,18.383
	c-0.881,3.299-2.215,6.668-5.689,8.213c-13.58,6.041-27.182,12.037-40.834,17.912c-1.371,0.59-3.57,0.936-4.641,0.244
	c-4.137-2.678-8.781-5.18-11.762-8.92c-7.352-9.223-7.045-19.805-1.617-29.645c7.492-13.582,10.715-28.176,11.854-43.293
	c0.52-6.896-0.082-13.809,0.965-20.803c0.779-5.209,2.34-9.699,4.859-14.125c1.107-1.947,2.023-4.1,2.531-6.273
	c1.061-4.547,1.561-9.23,2.717-13.75c1.744-6.828,4.148-13.498,5.691-20.363c0.938-4.166,0.781-8.578,1.143-13.221
	c-3.184,1.803-5.631,3.516-8.326,4.625c-2.762,1.135-5.738,1.805-8.672,2.443c-2.771,0.604-5.607,1.227-8.418,1.25
	c-3.602,0.031-7.213-0.482-10.812-0.844c-5.424-0.543-10.836-1.131-15.74-3.854c-13.758-7.645-25.023-18.188-34.879-30.285
	c-5.256-6.452-5.553-14.421-5.852-22.288c-0.084-2.237,0.357-4.643-0.324-6.676c-1.105-3.309-1.074-6.098,1.24-8.81
	c1.334-1.562,1.447-3.277,0.783-5.336c-1.439-4.469-0.721-8.658,2.412-12.339c1.918-2.256,4.08-4.408,5.523-6.953
	c7.426-13.104,17.705-23.928,27.439-35.223c3.902-4.527,7.154-9.637,10.467-14.637c1.244-1.881,1.135-3.939-0.371-6.117
	c-1.354-1.956-1.812-4.52-2.736-6.787c-0.572-1.406-0.939-3.133-1.979-4.072c-3.879-3.501-7.135-7.036-8-12.666
	c-0.627-4.079-0.682-7.606,2.082-10.719c3.916-4.412,7.814-8.862,12.029-12.981c7.174-7.011,14.58-13.784,21.904-20.64
	c2.207-2.068,3.324-4.41,3.182-7.598c-0.42-9.359-0.564-18.73-0.822-28.096C134.55,4.885,136.056,1.487,140.583,0z"/>
</svg>
