<?xml version="1.0" encoding="utf-8"?>
<!-- Generator: Adobe Illustrator 16.0.3, SVG Export Plug-In . SVG Version: 6.00 Build 0)  -->
<!DOCTYPE svg PUBLIC "-//W3C//DTD SVG 1.1//EN" "http://www.w3.org/Graphics/SVG/1.1/DTD/svg11.dtd">
<svg version="1.1" id="Layer_1" xmlns="http://www.w3.org/2000/svg" xmlns:xlink="http://www.w3.org/1999/xlink" x="0px" y="0px"
	 width="557.018px" height="460.18px" viewBox="0 0 557.018 460.18" enable-background="new 0 0 557.018 460.18"
	 xml:space="preserve">
<path d="M531.692,272.656c0,4.054,0,8.106,0,12.161c-0.318,1.167-0.633,2.336-0.951,3.503c-2.447,8.966-9.74,13.105-17.205,16.852
	c-6.031,3.025-12.377,5.413-18.498,8.265c-8.979,4.182-17.861,8.562-26.816,12.791c-11.652,5.505-23.385,10.847-34.992,16.441
	c-9.752,4.698-19.25,9.939-29.088,14.44c-15.152,6.932-30.385,13.713-45.805,20.024c-10.207,4.181-20.764,7.534-31.232,11.055
	c-5.693,1.913-11.484,3.571-17.307,5.04c-10.625,2.682-21.271,5.288-31.976,7.632c-7.127,1.561-14.357,2.648-21.557,3.871
	c-3.83,0.65-7.672,1.301-11.535,1.659c-5.624,0.522-11.276,0.719-16.906,1.182c-2.1,0.173-4.17,0.705-6.254,1.073
	c-12.714,0-25.429,0-38.144,0c-0.28-0.178-0.55-0.487-0.844-0.516c-6.061-0.583-12.149-0.937-18.179-1.741
	c-8.228-1.096-16.517-2.069-24.585-3.936c-10.847-2.508-21.844-4.953-32.163-8.994c-13.226-5.181-26.07-11.483-38.646-18.124
	c-10.889-5.749-20.42-13.444-28.233-23.247c-8.567-10.748-13.48-22.721-14.374-36.409c-0.18-2.744-0.709-5.465-1.077-8.196
	c0-3.869,0-7.738,0-11.608c0.183-0.372,0.466-0.725,0.534-1.115c1.609-9.152,4.36-17.853,8.663-26.182
	c4.98-9.643,12.761-16.942,19.692-24.926c6.462-7.443,14.387-13.42,22.624-18.787c10.213-6.656,21.358-11.479,32.933-15.318
	c0.754-0.25,1.69-1.421,1.702-2.177c0.042-2.725-0.296-5.453-0.452-8.183c-0.564-9.748-1.14-19.496-1.659-29.247
	c-0.249-4.659-0.257-9.334-0.599-13.984c-0.639-8.707-1.55-17.395-2.138-26.104c-0.387-5.754-0.327-11.538-0.626-17.3
	c-0.146-2.797-0.85-5.567-0.948-8.362c-0.177-4.967-0.1-9.942-0.075-14.914c0.002-0.384,0.453-0.752,0.646-1.151
	c2.201-4.538,6.076-7.327,10.386-9.467c9.844-4.887,20.466-7.334,31.167-9.407c7.259-1.406,14.556-2.622,21.85-3.838
	c4.99-0.832,10.006-1.512,15.007-2.27c6.61-1,13.222-1.981,19.825-3.026c3.738-0.592,7.445-1.416,11.195-1.918
	c5.12-0.686,10.278-1.109,15.406-1.745c5.293-0.655,10.551-1.67,15.858-2.096c7.564-0.606,15.162-0.799,22.744-1.207
	c6.003-0.324,11.998-0.77,18.004-1.038c3.219-0.143,6.447,0.008,9.672-0.05c0.744-0.014,1.484-0.344,2.227-0.528
	c4.789,0,9.582,0,14.371,0c0.65,0.185,1.295,0.511,1.949,0.531c7.148,0.219,14.299,0.324,21.445,0.592
	c7.76,0.291,15.514,0.706,23.268,1.097c3.279,0.165,6.566,0.291,9.83,0.636c5.939,0.627,11.865,1.402,17.795,2.121
	c5.033,0.609,10.094,1.063,15.092,1.889c5.055,0.833,10.039,2.088,15.07,3.069c9.93,1.937,19.719,4.376,28.127,10.29
	c3.188,2.243,6.021,5.163,5.65,9.772c-0.303,3.73-0.334,7.481-0.588,11.217c-0.512,7.539-1.158,15.069-1.629,22.61
	c-0.621,9.961-1.102,19.931-1.686,29.895c-0.318,5.457-0.764,10.907-1.084,16.364c-0.584,9.93-1.102,19.863-1.678,29.794
	c-0.334,5.732-0.762,11.459-1.086,17.192c-0.518,9.075-0.986,18.152-1.488,27.483c2.994,0.662,6.186,1.197,9.277,2.084
	c9.584,2.751,19.158,5.546,28.684,8.5c7.121,2.208,14.215,4.535,21.217,7.097c6.076,2.226,12.162,4.541,17.957,7.399
	C524.583,263.695,529.485,266.843,531.692,272.656z"/>
</svg>
