<?xml version="1.0" encoding="utf-8"?>
<!-- Generator: Adobe Illustrator 16.0.3, SVG Export Plug-In . SVG Version: 6.00 Build 0)  -->
<!DOCTYPE svg PUBLIC "-//W3C//DTD SVG 1.1//EN" "http://www.w3.org/Graphics/SVG/1.1/DTD/svg11.dtd">
<svg version="1.1" id="Layer_1" xmlns="http://www.w3.org/2000/svg" xmlns:xlink="http://www.w3.org/1999/xlink" x="0px" y="0px"
	 width="557.018px" height="460.18px" viewBox="0 0 557.018 460.18" enable-background="new 0 0 557.018 460.18"
	 xml:space="preserve">
<path fill-rule="evenodd" clip-rule="evenodd" d="M387.672,241.82c17.023,4.52,33.43,8.938,49.869,13.221
	c16.33,4.254,32.693,8.383,49.049,12.537c1.592,0.404,3.238,0.596,4.863,0.873c5.381,0.918,8.619,5.418,7.801,10.84
	c-0.271,1.797-0.963,3.658-0.717,5.385c1.207,8.469-3.887,13.047-10.305,16.422c-58.385,30.719-117.205,60.529-181.734,76.549
	c-28.377,7.043-56.9,13.701-85.629,19.07c-33.693,6.295-67.857,9.262-102.18,8.295c-15.938-0.449-31.842-2.299-47.744-3.715
	c-7.434-0.66-9.057-2.1-10.562-9.6c-1.041-5.186-1.133-10.553-1.961-15.789c-4.111-25.988,8.379-44.619,27.477-59.537
	c12.512-9.773,26.182-18.092,39.551-26.723c2.795-1.803,3.518-3.242,2.682-6.305c-10.025-36.705-19.873-73.459-29.945-110.151
	c-7.088-25.827,1.314-49.571,24.27-63.644c5.027-3.082,6.547-6.866,7.979-11.229c2.5-7.625,8.625-10.776,15.32-11.827
	c22.082-3.465,44.289-6.128,66.434-9.201c20.334-2.822,40.639-5.853,60.977-8.647c18.537-2.547,37.111-4.84,55.654-7.358
	c14.242-1.934,28.467-3.994,42.686-6.1c6.344-0.939,10.92,1.48,14.602,6.816c1.568,2.273,4.451,4.347,7.111,5.01
	c5.34,1.33,9.025,3.777,11.6,8.832c2.537,4.983,7.598,8.667,7.523,15.003c-0.072,6.126,0.793,12.412-0.277,18.353
	c-7.463,41.442-15.324,82.813-23.043,124.209C388.535,236.006,388.18,238.627,387.672,241.82z M364.262,235.793
	c8.193-44.462,16.254-88.189,24.225-131.441c-6.268,1.554-12.117,3.236-18.064,4.441c-50.811,10.304-101.641,20.517-152.463,30.766
	c-18.307,3.691-36.697,7.024-54.877,11.26c-9.932,2.314-18.057,0.61-24.951-6.777c-2.268-2.43-3.947-1.953-5.438,0.661
	c-3.5,6.143-4.932,12.58-3.125,19.625c8.027,31.31,15.957,62.642,23.988,93.95c1.295,5.049,2.922,10.012,4.098,13.998
	c27.518-9.732,54.154-19.432,80.988-28.551c19.189-6.521,38.732-12.008,57.943-18.47c8.684-2.92,16.799-3.137,25.615-0.457
	C335.746,228.915,349.598,232.018,364.262,235.793z"/>
</svg>
