<?xml version="1.0" encoding="utf-8"?>
<!-- Generator: Adobe Illustrator 16.0.3, SVG Export Plug-In . SVG Version: 6.00 Build 0)  -->
<!DOCTYPE svg PUBLIC "-//W3C//DTD SVG 1.1//EN" "http://www.w3.org/Graphics/SVG/1.1/DTD/svg11.dtd">
<svg version="1.1" id="Layer_1" xmlns="http://www.w3.org/2000/svg" xmlns:xlink="http://www.w3.org/1999/xlink" x="0px" y="0px"
	 width="557.018px" height="460.18px" viewBox="0 0 557.018 460.18" enable-background="new 0 0 557.018 460.18"
	 xml:space="preserve">
<path d="M465.39,289.797c0,1.725,0,3.448,0,5.172c-0.314,0.316-0.746,0.577-0.922,0.957c-1.242,2.686-2.229,5.51-3.676,8.075
	c-4.67,8.289-10.525,15.786-17.092,22.579c-6.189,6.402-12.699,12.677-19.881,17.889c-9.096,6.602-18.806,12.439-28.635,17.92
	c-8.885,4.954-18.232,9.097-27.471,13.391c-11.33,5.268-22.632,10.629-34.178,15.389c-14.205,5.854-28.578,11.323-43.016,16.582
	c-8.829,3.215-17.891,5.811-26.896,8.521c-7.684,2.313-15.401,4.524-23.163,6.551c-11.099,2.897-22.244,5.612-33.383,8.355
	c-5.496,1.352-10.998,2.698-16.537,3.858c-8.615,1.805-17.261,3.476-25.902,5.152c-6.771,1.312-13.556,2.562-20.341,3.814
	c-5.124,0.945-10.25,1.889-15.388,2.757c-5.074,0.855-10.168,1.583-15.244,2.426c-3.438,0.57-6.857,1.243-10.285,1.87
	c-1.724,0-3.448,0-5.172,0c-0.256-1.527-0.804-3.074-0.702-4.577c0.16-2.358,0.799-4.682,1.163-7.029
	c1.027-6.602,1.982-13.214,3.036-19.811c0.649-4.062,1.477-8.095,2.128-12.155c0.487-3.034,0.766-6.102,1.234-9.139
	c0.809-5.233,1.712-10.45,2.54-15.68c0.769-4.853,1.479-9.714,2.236-14.568c0.594-3.806,1.221-7.606,1.846-11.491
	c-4.147,0.479-8.14,0.767-12.067,1.437c-5.472,0.934-5.77-0.294-6.055-4.588c-0.521-7.837-0.7-15.696-0.996-23.546
	c-0.185-4.902-0.313-9.809-0.499-14.711c-0.012-0.322-0.291-0.636-0.446-0.952c0-2.351,0-4.702,0-7.053
	c0.831-0.893,1.554-1.93,2.514-2.651c3.098-2.332,6.261-4.579,9.438-6.803c6.905-4.833,13.854-9.604,20.738-14.467
	c1.559-1.101,3.029-1.182,4.745-0.537c2.642,0.992,5.328,1.859,7.995,2.783c3.24,1.122,6.48,2.247,9.814,3.402
	c0.25-1.312,0.406-2.525,0.716-3.698c1.115-4.224,2.981-7.906,7.551-9.281c1.084-0.325,2.31-0.235,3.471-0.237
	c8.046-0.018,16.091-0.01,24.147-0.01c0-1.59,0.206-2.804-0.037-3.918c-0.843-3.856-0.17-7.328,2.923-9.833
	c2.053-1.664,4.411-3.238,6.895-4.03c8.145-2.597,16.156-5.606,24.857-6.331c6.657-0.555,13.087,0.087,19.547,1.332
	c1.318,0.255,2.636,0.526,4.115,0.821c0.083-4.809,3.103-7.79,6.334-9.64c4.583-2.623,9.858-4.026,14.792-6.059
	c0.643-0.265,1.44-1.174,1.45-1.794c0.103-6.967,0.064-13.935,0.064-20.924c-5.712-1.986-11.323-3.949-16.942-5.889
	c-3.006-1.038-4.203-2.644-4.21-5.821c-0.011-5.641,0.097-11.284-0.035-16.922c-0.102-4.319,1.761-7.913,5.315-9.579
	c5.555-2.604,11.515-4.417,17.42-6.173c3.098-0.921,6.444-1.01,9.608-1.464c0.212-4.322,0.404-8.282,0.599-12.241
	c0.154-3.182,0.327-6.362,0.463-9.545c0.324-7.695,0.67-15.39,0.936-23.087c0.215-6.235,0.324-12.475,0.488-18.711
	c0.01-0.385,0.121-0.765,0.14-1.149c0.15-3.005,0.289-6.009,0.43-8.978c-1.779-0.236-3.175-0.326-4.527-0.62
	c-3.244-0.703-6.657-0.938-9.377-3.202c-4.874-4.056-4.503-9.401-3.664-14.858c0.441-2.876,1.967-5.29,4.61-6.187
	c3.957-1.341,8.116-2.124,12.229-2.945c1.224-0.245,2.031-0.295,2.058-1.83c0.086-4.829,0.296-9.655,0.444-14.482
	c0.164-5.375,0.325-10.75,0.468-16.126c0.168-6.315,0.364-12.631,0.459-18.947c0.075-5.041,0.433-5.701,4.716-7.438
	c2.352,0,4.702,0,7.053,0c0.315,0.155,0.616,0.406,0.945,0.452c2.937,0.411,4.147,1.784,4.236,4.692
	c0.116,3.811,0.367,7.616,0.446,11.427c0.196,9.371,0.289,18.744,0.499,28.114c0.105,4.652,0.377,9.3,0.563,13.729
	c3.717,0.782,7.297,1.314,10.74,2.319c3.969,1.157,7.157,3.512,7.688,7.962c0.288,2.412,0.032,4.924-0.254,7.357
	c-0.182,1.544-0.602,3.188-1.385,4.509c-2.298,3.88-6.348,4.775-10.38,5.45c-6.084,1.018-6.095,0.961-5.481,7.166
	c0.007,0.072,0.073,0.137,0.188,0.338c0.451-0.041,0.969-0.072,1.483-0.137c4.503-0.564,8.991-1.403,13.512-1.646
	c8.694-0.465,17.346,0.051,25.82,2.303c7.299,1.938,10.542,10.134,6.714,16.388c-2.014,3.288-5.204,4.802-8.678,5.543
	c-1.847,0.394-2.021,1.155-2.014,2.648c0.038,8.854,0.017,17.707,0.024,26.562c0.001,0.605,0.079,1.212,0.135,1.994
	c2.196-0.166,4.272-0.229,6.316-0.515c1.112-0.154,2.201-0.618,3.249-1.064c0.789-0.336,1.447-1.093,2.25-1.27
	c2.881-0.634,5.799-1.103,8.533-1.602c0.244-1.592,0.596-2.959,0.642-4.336c0.212-6.314,0.381-12.631,0.481-18.947
	c0.073-4.543-0.141-9.096,0.079-13.63c0.111-2.322-0.81-3.139-2.831-3.895c-2.169-0.812-4.625-1.854-6.014-3.56
	c-3.843-4.717-3.062-13.825,4.797-15.991c4.555-1.256,9.32-2.027,14.035-2.336c4.796-0.313,9.672-0.04,14.466,0.439
	c4.325,0.435,8.7,1.118,12.851,2.364c7.43,2.229,9.236,9.625,5.295,15.609c-1.986,3.015-5.194,4.32-8.674,5.044
	c-0.595,0.123-1.466,0.979-1.479,1.514c-0.117,4.641-0.067,9.285-0.067,13.928c0.558-0.326,0.806-0.696,0.922-1.104
	c0.968-3.392,3.084-6.151,5.719-8.203c5.725-4.457,12.847-6.059,20.398-1.952c10.091,5.486,12.392,19.264,5.448,27.524
	c-1.212,1.441-2.463,3.21-2.757,4.982c-0.555,3.351-0.472,6.813-0.575,10.231c-0.189,6.315-0.323,12.632-0.479,18.947
	c-0.013,0.549,0.002,1.098-0.028,1.645c-0.34,6.042-0.688,12.083-1.042,18.326c1.302,0.229,2.399,0.521,3.512,0.599
	c6.495,0.454,11.12,4.718,11.877,11.282c1.165-0.813,2.219-1.545,3.266-2.284c3.48-2.459,5.819-4.232,10.118,0.596
	c2.071,2.326,2.258,6.53-0.106,8.586c-2.781,2.416-5.842,4.508-8.772,6.752c-1.792,1.373-3.569,2.767-5.353,4.151
	c0.119,0.191,0.238,0.384,0.356,0.575c2.663-0.321,5.325-0.645,7.987-0.964c3.846-0.46,7.709-0.802,11.53-1.407
	c3.731-0.591,4.979,0.359,5.231,4.144c0.201,3.001,0.63,5.983,0.944,8.977c0.622,5.907,1.237,11.814,1.851,17.723
	c0.334,3.225,0.61,6.458,1.001,9.678c0.564,4.659,1.184,9.312,1.83,13.961C464.408,283.815,464.919,286.804,465.39,289.797z
	 M395.929,158.123c-1.415,1.634-2.773,3.07-3.972,4.63c-0.863,1.123-2.074,2.374-2.156,3.63c-0.271,4.202-0.102,8.431-0.102,12.765
	c2.018,0.43,3.918,0.835,6.229,1.327C395.929,172.9,395.929,165.702,395.929,158.123z M301.467,167.201
	c0.203,0.05,0.408,0.099,0.612,0.148c0.214-0.8,0.592-1.594,0.616-2.398c0.202-6.768,0.392-13.537,0.479-20.308
	c0.077-5.861-0.046-11.726,0.049-17.586c0.034-2.113-0.814-2.608-2.833-2.075C300.75,139.068,301.107,153.135,301.467,167.201z
	 M182.647,299.968c-0.025-0.176-0.051-0.351-0.076-0.526c-4.431,0.296-8.863,0.591-13.174,0.879c0,2.549,0,4.901,0,7.498
	C173.985,305.101,178.316,302.533,182.647,299.968z"/>
</svg>
