<?xml version="1.0" encoding="utf-8"?>
<!-- Generator: Adobe Illustrator 16.0.3, SVG Export Plug-In . SVG Version: 6.00 Build 0)  -->
<!DOCTYPE svg PUBLIC "-//W3C//DTD SVG 1.1//EN" "http://www.w3.org/Graphics/SVG/1.1/DTD/svg11.dtd">
<svg version="1.1" id="Layer_1" xmlns="http://www.w3.org/2000/svg" xmlns:xlink="http://www.w3.org/1999/xlink" x="0px" y="0px"
	 width="557.018px" height="460.18px" viewBox="0 0 557.018 460.18" enable-background="new 0 0 557.018 460.18"
	 xml:space="preserve">
<path fill-rule="evenodd" clip-rule="evenodd" d="M162.033,439.283c-14.014-1.693-28.217-2.892-42.23-5.229
	c-18.729-3.125-26.093-14.926-29.069-34.199c-3.897-25.248,6.206-42.919,24.315-58.036c4.205-3.511,8.402-7.113,13.001-10.054
	c14.971-9.569,29.844-19.346,45.273-28.134c25.099-14.292,45.736-33.095,59.068-58.745c7.363-14.166,9.455-29.898,8.105-46.15
	c-1.172-14.117-1.586-28.38-1.065-42.532c0.556-15.111,10.638-21.102,23.291-13.098c16.626,10.517,32.958,8.967,50.215,3.308
	c16.062-5.267,32.173-10.444,48.461-14.942c17.473-4.825,28.969-14.046,33.226-32.967c4.473-19.868,11.018-39.353,17.866-58.575
	c5.863-16.453,16.758-21.486,33.789-17.974c12.808,2.641,24.91,15.758,19.518,30.79c-4.498,12.538-9.949,24.736-15.04,37.059
	c-6.251,15.135-12.33,30.346-18.98,45.304c-2.298,5.167-0.841,8.503,2.239,12.493c3.611,4.677,6.003,10.322,9.747,14.866
	c5.558,6.742,1.851,11.961-1.563,17.66c-10.221,17.055-12.961,35.235-9.555,54.913c4.554,26.31,12.366,52.46,6.038,79.676
	c-1.099,4.738-1.29,9.728-1.538,14.618c-0.801,15.731-11.423,22.003-24.604,25.876c-3.939,1.16-8.365,1.438-11.79,3.447
	c-9.306,5.461-18.005,9.288-26.473-1.297c-0.989-1.235-3.852-2.167-5.289-1.662c-13.557,4.777-29.434,4.878-38.306,19.229
	c-8.744,14.143-20.727,24.305-36.43,30.586c-11.591,4.638-22.061,12.23-33.794,16.318c-15.167,5.286-30.916,9.434-46.742,12.158
	C196.805,436.899,179.511,437.588,162.033,439.283z"/>
</svg>
