<?xml version="1.0" encoding="utf-8"?>
<!-- Generator: Adobe Illustrator 16.0.3, SVG Export Plug-In . SVG Version: 6.00 Build 0)  -->
<!DOCTYPE svg PUBLIC "-//W3C//DTD SVG 1.1//EN" "http://www.w3.org/Graphics/SVG/1.1/DTD/svg11.dtd">
<svg version="1.1" id="Layer_1" xmlns="http://www.w3.org/2000/svg" xmlns:xlink="http://www.w3.org/1999/xlink" x="0px" y="0px"
	 width="557.018px" height="460.18px" viewBox="0 0 557.018 460.18" enable-background="new 0 0 557.018 460.18"
	 xml:space="preserve">
<path d="M270.561,22.312c5.602,0,11.202,0,16.804,0c2.016,0.303,4.027,0.637,6.048,0.901c5.013,0.657,10.119,0.89,15.022,2.015
	c6.891,1.581,13.742,3.5,20.403,5.862c6.104,2.166,12.202,4.638,17.814,7.833c7.057,4.018,13.916,8.531,20.306,13.537
	c5.82,4.56,10.717,10.312,12.975,17.565c1.195,3.842,1.449,8.004,1.887,12.049c0.852,7.858,1.502,15.738,2.29,23.604
	c0.565,5.631,1.247,11.251,1.824,16.882c0.632,6.157,1.19,12.32,1.806,18.478c0.451,4.522,0.926,9.043,1.421,13.56
	c0.566,5.178,1.229,10.347,1.729,15.531c0.287,2.984,0.171,6.009,0.517,8.984c0.969,8.345,2.132,16.667,3.12,25.009
	c0.833,7.025,1.583,14.061,2.268,21.101c0.68,6.984,1.234,13.98,1.84,20.971c0.206,2.383,0.351,4.772,0.618,7.147
	c0.516,4.58,1.146,9.148,1.638,13.731c0.39,3.637,0.6,7.294,0.969,10.933c0.555,5.481,1.186,10.956,1.77,16.434
	c0.479,4.522,0.901,9.05,1.41,13.568c0.555,4.953,1.237,9.891,1.755,14.847c0.533,5.121,0.92,10.259,1.41,15.383
	c0.12,1.251,0.053,2.696,0.658,3.694c3.145,5.18,3.368,10.972,3.854,16.73c0.297,3.497,0.571,6.996,0.949,10.484
	c0.171,1.574,0.569,3.124,0.866,4.687c0,3.785,0,7.569,0,11.354c-0.258,0.808-0.543,1.607-0.769,2.423
	c-2.452,8.833-8.413,15.129-15.326,20.565c-5.765,4.533-12.2,8.01-18.868,11.15c-10.692,5.034-21.826,8.667-33.302,11.217
	c-8.296,1.845-16.69,3.318-25.102,4.553c-7.284,1.068-14.651,1.564-21.981,2.334c-0.468,0.05-0.915,0.289-1.373,0.44
	c-12.563,0-25.13,0-37.694,0c-0.23-0.147-0.451-0.401-0.694-0.424c-6.76-0.629-13.551-1.019-20.276-1.902
	c-7.267-0.953-14.553-2.017-21.686-3.666c-9.122-2.107-18.211-4.506-27.106-7.417c-8.723-2.855-17.083-6.76-24.882-11.666
	c-6.62-4.163-12.6-9.18-17.307-15.465c-2.878-3.843-4.461-8.404-5.677-13.051c0-2.876,0-5.753,0-8.629
	c0.163-1.819,0.298-3.642,0.493-5.456c0.58-5.404,1.151-10.808,1.793-16.204c0.255-2.13,0.515-4.284,1.078-6.343
	c0.771-2.817,2.039-5.506,2.711-8.342c0.546-2.302,0.517-4.739,0.762-7.113c0.591-5.706,1.188-11.41,1.795-17.113
	c0.322-3.039,0.653-6.075,1.007-9.109c0.713-6.131,1.507-12.255,2.15-18.395c0.554-5.271,0.896-10.562,1.42-15.836
	c0.699-7.04,1.5-14.07,2.226-21.108c0.353-3.413,0.583-6.842,0.952-10.253c0.714-6.586,1.508-13.163,2.226-19.748
	c0.502-4.594,0.914-9.199,1.399-13.794c0.578-5.48,1.216-10.954,1.777-16.435c0.236-2.307,0.27-4.635,0.529-6.939
	c0.536-4.728,1.22-9.439,1.736-14.169c0.534-4.895,0.913-9.805,1.411-14.703c0.564-5.557,1.206-11.107,1.777-16.663
	c0.351-3.415,0.597-6.842,0.957-10.256c0.718-6.812,1.5-13.617,2.222-20.429c0.496-4.671,0.921-9.351,1.402-14.024
	c0.581-5.63,1.234-11.254,1.769-16.889c0.391-4.12,1.496-8.011,3.659-11.525c3.325-5.399,7.601-9.971,12.535-13.948
	c8.906-7.177,18.815-12.683,29.29-17.118c9.542-4.041,19.42-7.164,29.693-8.769c5.798-0.906,11.649-1.472,17.475-2.211
	C269.351,22.678,269.951,22.463,270.561,22.312z"/>
</svg>
