<?xml version="1.0" encoding="utf-8"?>
<!-- Generator: Adobe Illustrator 16.0.3, SVG Export Plug-In . SVG Version: 6.00 Build 0)  -->
<!DOCTYPE svg PUBLIC "-//W3C//DTD SVG 1.1//EN" "http://www.w3.org/Graphics/SVG/1.1/DTD/svg11.dtd">
<svg version="1.1" id="Layer_1" xmlns="http://www.w3.org/2000/svg" xmlns:xlink="http://www.w3.org/1999/xlink" x="0px" y="0px"
	 width="557.018px" height="460.18px" viewBox="0 0 557.018 460.18" enable-background="new 0 0 557.018 460.18"
	 xml:space="preserve">
<path fill-rule="evenodd" clip-rule="evenodd" d="M89.023,250.834c8.713-13.318,11.331-27.148,9.178-42.605
	c-1.527-10.959-0.238-22.291-0.506-33.449c-0.518-21.594-1.16-43.186-1.971-64.771c-0.146-3.913,1.086-4.918,4.912-5.467
	c34.732-4.979,69.399-10.416,104.137-15.357c15.934-2.266,31.801-6.333,48.07-4.341c19.016,2.328,37.105,7.418,52.043,20.302
	c2.895,2.497,5.973,5.058,8,8.211c2.424,3.771,5.385,3.447,8.994,3.164c17.91-1.406,35.822-3.215,53.764-3.667
	c9.875-0.249,20.199,0.548,29.633,3.264c16.488,4.745,33.055,9.408,47.842,19.195c10.08,6.672,16.654,15.921,23.939,24.841
	c2.258,2.765,4.125,5.849,6.65,9.479c3.23-0.956,7.307-2.098,11.342-3.366c13.949-4.386,27.83-8.999,41.857-13.112
	c4.047-1.187,8.496-1.277,12.768-1.339c4.809-0.068,6.682,3.289,7.254,7.562c0.131,0.982-0.002,1.998,0.02,2.997
	c0.352,15.881-0.199,11.673-12.801,16.476c-12.396,4.726-25.041,8.797-37.58,13.15c-9.592,3.33-19.141,6.796-28.797,9.922
	c-5.455,1.766-9.082,4.937-11.287,10.319c-6.719,16.407-13.854,32.644-20.539,49.065c-3.031,7.439-8.035,12.242-17.502,7.038
	c-10.107-5.556-19.967-11.571-29.848-17.532c-6.537-3.943-12.84-8.28-19.438-12.115c-1.426-0.828-3.854-0.811-5.498-0.244
	c-24.041,8.259-47.99,16.785-72.035,25.03c-27.943,9.583-56.127,18.493-83.873,28.604c-14.295,5.209-29.029,5.333-43.689,6.772
	c-18.537,1.82-37.128,3.104-55.9,4.638c-1.475,17.822-8.297,33.229-18.979,47.072c-2.895,3.752-5.31,7.912-8.479,11.398
	c-1.635,1.799-4.52,2.406-6.707,3.764c-10.405,6.463-21.599,10.207-33.944,10.129c-0.167,0-0.336,0.018-0.499-0.002
	c-18.885-2.439-42.65-16.545-47.711-39.156c-4.586-20.486-0.363-39.387,9.83-57.408c7.039-12.441,17.112-22.071,29.314-28.584
	c11.887-6.344,25.18-8.512,38.588-3.37C82.796,248.574,86.043,249.734,89.023,250.834z"/>
</svg>
